<svg xmlns="http://www.w3.org/2000/svg" version="1.1" xmlns:xlink="http://www.w3.org/1999/xlink" xmlns:svgjs="http://svgjs.dev/svgjs" width="1000" height="196" viewBox="0 0 1000 196"><g transform="matrix(1,0,0,1,-0.6060606060606233,-0.24465321107541627)"><svg viewBox="0 0 396 78" data-background-color="#528265" preserveAspectRatio="xMidYMid meet" height="196" width="1000" xmlns="http://www.w3.org/2000/svg" xmlns:xlink="http://www.w3.org/1999/xlink"><g id="tight-bounds" transform="matrix(1,0,0,1,0.2400000000000091,0.10945063384409082)"><svg viewBox="0 0 395.52 77.78109873231182" height="77.78109873231182" width="395.52"><g><svg viewBox="0 0 454.08299856856104 89.29782196684226" height="77.78109873231182" width="395.52"><g transform="matrix(1,0,0,1,0,12.341450069223498)"><svg viewBox="0 0 395.52 64.61492182839527" height="64.61492182839527" width="395.52"><g id="textblocktransform"><svg viewBox="0 0 395.52 64.61492182839527" height="64.61492182839527" width="395.52" id="textblock"><g><svg viewBox="0 0 395.52 44.86911712866528" height="44.86911712866528" width="395.52"><g transform="matrix(1,0,0,1,0,0)"><svg width="395.52" viewBox="2 -35.20000076293945 316.67999267578125 35.400001525878906" height="44.86911712866528" data-palette-color="#ffffff"><g class="wordmark-text-0" data-fill-palette-color="primary" id="text-0"><path d="M23.65-13.2L19.35-13.2 19.35-15.95 28.4-15.95 28.4-13.2 26.45-13.2 26.45-1.05Q25.6-0.75 21.93-0.28 18.25 0.2 15.95 0.2 13.65 0.2 11.95-0.13 10.25-0.45 8.35-1.5 6.45-2.55 5.13-4.28 3.8-6 2.9-9 2-12 2-16L2-16Q2-24.85 6.05-29.8L6.05-29.8Q10.3-35 17.65-35L17.65-35Q19.9-35 22.53-34.58 25.15-34.15 26.25-33.75L26.25-33.75 26.85-26.55 24.4-26.2 23.7-31.6Q20.5-32.3 17.65-32.3L17.65-32.3Q12-32.3 8.7-28.1 5.4-23.9 5.4-16L5.4-16Q5.4-12.6 6.1-10.05 6.8-7.5 7.83-6.1 8.85-4.7 10.35-3.9L10.35-3.9Q12.75-2.55 16-2.55 19.25-2.55 23.5-3.2L23.5-3.2 23.65-13.2ZM36.25-32.25L33.2-32.25 33.2-35 45.25-35Q50.4-35 53.2-32.75 56-30.5 56-26.05L56-26.05Q56-23.1 53.92-19.93 51.85-16.75 49.85-15.6L49.85-15.6 57.75-2.75 61.3-2.75 61.3 0 55.8 0 46.9-14.35 39.65-14.35 39.65-2.75 43.3-2.75 43.3 0 33.2 0 33.2-2.75 36.25-2.75 36.25-32.25ZM45-32.25L45-32.25 39.65-32.25 39.65-17.1 47.9-17.1Q52.6-21.4 52.6-25.75L52.6-25.75Q52.6-28.95 50.65-30.6 48.7-32.25 45-32.25ZM67.84-32.25L64.8-32.25 64.8-35 86.05-35 86-34.7 86.65-27.8 84.15-27.4 83.55-32.25 71.25-32.25 71.25-18.85 82.15-18.85 82.15-22 84.9-22 84.9-13.4 82.15-13.4 82.15-16.1 71.25-16.1 71.25-2.75 84.9-2.75 85.65-9 88.09-8.75 87.34 0 64.8 0 64.8-2.75 67.84-2.75 67.84-32.25ZM94.89-32.25L91.84-32.25 91.84-35 113.09-35 113.04-34.7 113.69-27.8 111.19-27.4 110.59-32.25 98.29-32.25 98.29-18.85 109.19-18.85 109.19-22 111.94-22 111.94-13.4 109.19-13.4 109.19-16.1 98.29-16.1 98.29-2.75 111.94-2.75 112.69-9 115.14-8.75 114.39 0 91.84 0 91.84-2.75 94.89-2.75 94.89-32.25ZM121.89-32.25L118.69-32.25 118.69-35 125.54-35 145.44-4.5 145.24-32.25 141.99-32.25 141.99-35 151.54-35 151.54-32.25 148.39-32.25 148.39 0 144.74 0 124.79-30.5 124.99-2.75 128.79-2.75 128.79 0 118.69 0 118.69-2.75 121.89-2.75 121.89-32.25ZM171.49-32.3L171.49-32.3Q165.84-32.3 162.54-28.1 159.24-23.9 159.24-16L159.24-16Q159.24-12.6 159.94-10.05 160.64-7.5 161.66-6.1 162.69-4.7 164.19-3.9L164.19-3.9Q166.59-2.55 169.79-2.55L169.79-2.55Q174.74-2.55 179.69-3.65L179.69-3.65 180.29-1.05Q179.44-0.75 175.76-0.28 172.09 0.2 169.79 0.2 167.49 0.2 165.79-0.13 164.09-0.45 162.19-1.5 160.29-2.55 158.96-4.28 157.64-6 156.74-9 155.84-12 155.84-16L155.84-16Q155.84-24.85 159.89-29.8L159.89-29.8Q164.14-35 171.49-35L171.49-35Q173.74-35 176.36-34.58 178.99-34.15 180.09-33.75L180.09-33.75 180.69-26.55 178.24-26.2 177.54-31.6Q174.34-32.3 171.49-32.3ZM214.09 0L203.99 0 203.99-2.75 207.38-2.75 207.38-15.85 190.34-15.85 190.34-2.75 194.03-2.75 194.03 0 183.94 0 183.94-2.75 187.19-2.75 187.19-32.25 183.94-32.25 183.94-35 194.03-35 194.03-32.25 190.34-32.25 190.34-18.85 207.38-18.85 207.38-32.25 203.99-32.25 203.99-35 213.59-35 213.59-32.25 210.53-32.25 210.53-2.75 214.09-2.75 214.09 0ZM218.18-17.4L218.18-17.4Q218.18-25.55 222.41-30.38 226.63-35.2 232.93-35.2L232.93-35.2Q247.68-35.2 247.68-17.4L247.68-17.4Q247.68-9.3 243.48-4.55 239.28 0.2 232.93 0.2L232.93 0.2Q218.18 0.2 218.18-17.4ZM221.58-17.5L221.58-17.5Q221.58-2.8 232.93-2.8L232.93-2.8Q237.83-2.8 241.06-6.7 244.28-10.6 244.28-17.5L244.28-17.5Q244.28-32.2 232.93-32.2L232.93-32.2Q228.03-32.2 224.81-28.28 221.58-24.35 221.58-17.5ZM255.48-32.25L252.18-32.25 252.18-35 262.28-35 262.28-32.25 258.88-32.25 258.88-2.75 262.28-2.75 262.28 0 252.18 0 252.18-2.75 255.48-2.75 255.48-32.25ZM282.43-32.3L282.43-32.3Q276.78-32.3 273.48-28.1 270.18-23.9 270.18-16L270.18-16Q270.18-12.6 270.88-10.05 271.58-7.5 272.6-6.1 273.63-4.7 275.13-3.9L275.13-3.9Q277.53-2.55 280.73-2.55L280.73-2.55Q285.68-2.55 290.63-3.65L290.63-3.65 291.23-1.05Q290.38-0.75 286.7-0.28 283.03 0.2 280.73 0.2 278.43 0.2 276.73-0.13 275.03-0.45 273.13-1.5 271.23-2.55 269.9-4.28 268.58-6 267.68-9 266.78-12 266.78-16L266.78-16Q266.78-24.85 270.83-29.8L270.83-29.8Q275.08-35 282.43-35L282.43-35Q284.68-35 287.3-34.58 289.93-34.15 291.03-33.75L291.03-33.75 291.63-26.55 289.18-26.2 288.48-31.6Q285.28-32.3 282.43-32.3ZM298.43-32.25L295.38-32.25 295.38-35 316.63-35 316.58-34.7 317.23-27.8 314.73-27.4 314.13-32.25 301.83-32.25 301.83-18.85 312.73-18.85 312.73-22 315.48-22 315.48-13.4 312.73-13.4 312.73-16.1 301.83-16.1 301.83-2.75 315.48-2.75 316.23-9 318.68-8.75 317.93 0 295.38 0 295.38-2.75 298.43-2.75 298.43-32.25Z" fill="#ffffff" data-fill-palette-color="primary"></path></g></svg></g></svg></g><g transform="matrix(1,0,0,1,163.310208,55.46163882393206)"><svg viewBox="0 0 232.209792 9.153283004463198" height="9.153283004463198" width="232.209792"><g transform="matrix(1,0,0,1,0,0)"><svg width="232.209792" viewBox="1.4900000095367432 -40.43000030517578 1203.320068359375 47.44000244140625" height="9.153283004463198" data-palette-color="#ffffff"><path d="M27.86-38.67L1.49-38.67 1.49-40.43 27.86-40.43 27.86-38.67ZM27.86-35.16L1.49-35.16 1.49-36.91 27.86-36.91 27.86-35.16ZM8.52-31.64L1.49-31.64 1.49-33.4 27.86-33.4 27.86-31.64 20.83-31.64 20.83 0 19.07 0 19.07-31.64 17.31-31.64 17.31 0 15.55 0 15.55-31.64 13.79-31.64 13.79 0 12.04 0 12.04-31.64 10.28-31.64 10.28 0 8.52 0 8.52-31.64ZM56.78 0L56.78-17.33Q56.78-20.46 54.86-22.17 52.93-23.88 49.75-23.88L49.75-23.88Q47.07-23.88 45.14-22.02 43.21-20.17 43.21-17.58L43.21-17.58Q43.21-16.11 43.6-14.95 43.99-13.79 44.66-13.02 45.33-12.26 46.26-11.76 47.19-11.25 48.2-11.04 49.22-10.82 50.36-10.82L50.36-10.82Q53.15-10.82 55.44-12.18L55.44-12.18 55.44-10.42Q53.07-9.18 50.34-9.18L50.34-9.18Q48.58-9.18 47.03-9.66 45.48-10.13 44.21-11.1 42.94-12.06 42.2-13.73 41.45-15.41 41.45-17.58L41.45-17.58Q41.45-20.95 43.82-23.29 46.19-25.63 49.75-25.63L49.75-25.63Q53.68-25.63 56.11-23.43 58.54-21.22 58.54-17.33L58.54-17.33 58.54 0 56.78 0ZM62.06-17.33L62.06-17.33 62.06 0 60.3 0 60.3-17.33Q60.3-21.95 57.35-24.67 54.39-27.39 49.75-27.39L49.75-27.39Q45.46-27.39 42.58-24.54 39.69-21.68 39.69-17.58L39.69-17.58Q39.69-15.09 40.56-13.11 41.43-11.13 42.92-9.94 44.41-8.74 46.25-8.12 48.09-7.5 50.14-7.5L50.14-7.5Q52.93-7.5 55.44-8.79L55.44-8.79 55.44-6.93Q52.81-5.83 50.12-5.83L50.12-5.83Q47.7-5.83 45.53-6.58 43.36-7.32 41.65-8.75 39.94-10.18 38.94-12.46 37.94-14.75 37.94-17.58L37.94-17.58Q37.94-22.39 41.34-25.77 44.75-29.15 49.75-29.15L49.75-29.15Q53.27-29.15 56.05-27.72 58.84-26.29 60.45-23.58 62.06-20.87 62.06-17.33ZM65.57-17.33L65.57-17.33 65.57 0 63.82 0 63.82-17.33Q63.82-21.36 61.97-24.48 60.13-27.59 56.93-29.25 53.73-30.91 49.75-30.91L49.75-30.91Q45.97-30.91 42.84-29.11 39.72-27.32 37.95-24.27 36.18-21.22 36.18-17.58L36.18-17.58Q36.18-14.45 37.33-11.88 38.47-9.3 40.41-7.64 42.36-5.98 44.83-5.07 47.31-4.15 50.02-4.15L50.02-4.15Q52.78-4.15 55.44-5.3L55.44-5.3 55.44-3.52Q52.66-2.47 49.97-2.47L49.97-2.47Q45.75-2.47 42.21-4.37 38.67-6.27 36.55-9.77 34.42-13.26 34.42-17.58L34.42-17.58Q34.42-20.65 35.61-23.44 36.79-26.22 38.82-28.25 40.84-30.27 43.7-31.47 46.56-32.67 49.75-32.67L49.75-32.67Q54.22-32.67 57.82-30.76 61.42-28.86 63.5-25.34 65.57-21.83 65.57-17.33ZM69.09-17.33L69.09-17.33 69.09 0 67.33 0 67.33-17.33Q67.33-22.31 65.01-26.23 62.69-30.15 58.69-32.29 54.69-34.42 49.75-34.42L49.75-34.42Q45.02-34.42 41.09-32.15 37.16-29.88 34.91-26.01 32.66-22.14 32.66-17.58L32.66-17.58Q32.66-14.58 33.63-11.88 34.59-9.18 36.26-7.17 37.94-5.15 40.12-3.69 42.31-2.22 44.83-1.46 47.36-0.71 49.97-0.71L49.97-0.71Q52.85-0.71 55.44-1.81L55.44-1.81 55.44 0Q52.73 0.95 49.88 0.95L49.88 0.95Q46.92 0.95 44.13 0.12 41.33-0.71 38.95-2.33 36.57-3.96 34.76-6.16 32.96-8.37 31.93-11.33 30.91-14.28 30.91-17.58L30.91-17.58Q30.91-21.36 32.33-24.79 33.76-28.22 36.24-30.73 38.72-33.23 42.25-34.7 45.77-36.18 49.75-36.18L49.75-36.18Q53.81-36.18 57.37-34.81 60.94-33.45 63.52-31.02 66.11-28.59 67.6-25.05 69.09-21.51 69.09-17.33ZM100.58-17.43L110.37-35.16 108.42-35.16 98.63-17.43 108.27 0 110.22 0 100.58-17.43ZM96.65-17.43L106.44-35.16 104.49-35.16 94.7-17.43 104.34 0 106.29 0 96.65-17.43ZM92.72-17.43L102.51-35.16 100.56-35.16 90.77-17.43 100.41 0 102.36 0 92.72-17.43ZM88.76-17.43L98.58-35.16 96.63-35.16 86.81-17.43 96.48 0 98.43 0 88.76-17.43ZM83.98 0L83.98-35.16 85.74-35.16 85.74 0 83.98 0ZM80.46 0L80.46-35.16 82.22-35.16 82.22 0 80.46 0ZM76.95 0L76.95-35.16 78.71-35.16 78.71 0 76.95 0ZM73.43 0L73.43-35.16 75.19-35.16 75.19 0 73.43 0ZM122.31-35.16L122.31 0 120.55 0 120.55-35.16 122.31-35.16ZM118.79-35.16L118.79 0 117.03 0 117.03-35.16 118.79-35.16ZM115.28-35.16L115.28 0 113.52 0 113.52-35.16 115.28-35.16ZM125.82-13.21L125.82-8.79 142.64-8.79 142.64-7.03 125.82-7.03 125.82-5.27 142.64-5.27 142.64-3.52 125.82-3.52 125.82-1.76 142.64-1.76 142.64 0 124.06 0 124.06-35.16 142.64-35.16 142.64-33.4 125.82-33.4 125.82-31.64 142.64-31.64 142.64-29.88 125.82-29.88 125.82-28.13 142.64-28.13 142.64-26.37 125.82-26.37 125.82-22 141.67-22 141.67-20.24 125.82-20.24 125.82-18.48 141.67-18.48 141.67-16.72 125.82-16.72 125.82-14.97 141.67-14.97 141.67-13.21 125.82-13.21ZM177.23 0L177.23-17.33Q177.23-20.46 175.3-22.17 173.38-23.88 170.2-23.88L170.2-23.88Q167.52-23.88 165.59-22.02 163.66-20.17 163.66-17.58L163.66-17.58Q163.66-16.11 164.05-14.95 164.44-13.79 165.11-13.02 165.78-12.26 166.71-11.76 167.64-11.25 168.65-11.04 169.67-10.82 170.81-10.82L170.81-10.82Q173.6-10.82 175.89-12.18L175.89-12.18 175.89-10.42Q173.52-9.18 170.79-9.18L170.79-9.18Q169.03-9.18 167.48-9.66 165.93-10.13 164.66-11.1 163.39-12.06 162.65-13.73 161.9-15.41 161.9-17.58L161.9-17.58Q161.9-20.95 164.27-23.29 166.64-25.63 170.2-25.63L170.2-25.63Q174.13-25.63 176.56-23.43 178.99-21.22 178.99-17.33L178.99-17.33 178.99 0 177.23 0ZM182.51-17.33L182.51-17.33 182.51 0 180.75 0 180.75-17.33Q180.75-21.95 177.8-24.67 174.84-27.39 170.2-27.39L170.2-27.39Q165.91-27.39 163.02-24.54 160.14-21.68 160.14-17.58L160.14-17.58Q160.14-15.09 161.01-13.11 161.88-11.13 163.37-9.94 164.86-8.74 166.7-8.12 168.54-7.5 170.59-7.5L170.59-7.5Q173.38-7.5 175.89-8.79L175.89-8.79 175.89-6.93Q173.25-5.83 170.57-5.83L170.57-5.83Q168.15-5.83 165.98-6.58 163.81-7.32 162.1-8.75 160.39-10.18 159.39-12.46 158.39-14.75 158.39-17.58L158.39-17.58Q158.39-22.39 161.79-25.77 165.2-29.15 170.2-29.15L170.2-29.15Q173.72-29.15 176.5-27.72 179.28-26.29 180.9-23.58 182.51-20.87 182.51-17.33ZM186.02-17.33L186.02-17.33 186.02 0 184.26 0 184.26-17.33Q184.26-21.36 182.42-24.48 180.58-27.59 177.38-29.25 174.18-30.91 170.2-30.91L170.2-30.91Q166.42-30.91 163.29-29.11 160.17-27.32 158.4-24.27 156.63-21.22 156.63-17.58L156.63-17.58Q156.63-14.45 157.78-11.88 158.92-9.3 160.86-7.64 162.8-5.98 165.28-5.07 167.76-4.15 170.47-4.15L170.47-4.15Q173.23-4.15 175.89-5.3L175.89-5.3 175.89-3.52Q173.11-2.47 170.42-2.47L170.42-2.47Q166.2-2.47 162.66-4.37 159.12-6.27 156.99-9.77 154.87-13.26 154.87-17.58L154.87-17.58Q154.87-20.65 156.05-23.44 157.24-26.22 159.26-28.25 161.29-30.27 164.15-31.47 167-32.67 170.2-32.67L170.2-32.67Q174.67-32.67 178.27-30.76 181.87-28.86 183.95-25.34 186.02-21.83 186.02-17.33ZM189.54-17.33L189.54-17.33 189.54 0 187.78 0 187.78-17.33Q187.78-22.31 185.46-26.23 183.14-30.15 179.14-32.29 175.13-34.42 170.2-34.42L170.2-34.42Q165.47-34.42 161.54-32.15 157.6-29.88 155.36-26.01 153.11-22.14 153.11-17.58L153.11-17.58Q153.11-14.58 154.08-11.88 155.04-9.18 156.71-7.17 158.39-5.15 160.57-3.69 162.76-2.22 165.28-1.46 167.81-0.71 170.42-0.71L170.42-0.71Q173.3-0.71 175.89-1.81L175.89-1.81 175.89 0Q173.18 0.95 170.32 0.95L170.32 0.95Q167.37 0.95 164.57 0.12 161.78-0.71 159.4-2.33 157.02-3.96 155.21-6.16 153.41-8.37 152.38-11.33 151.35-14.28 151.35-17.58L151.35-17.58Q151.35-21.36 152.78-24.79 154.21-28.22 156.69-30.73 159.17-33.23 162.7-34.7 166.22-36.18 170.2-36.18L170.2-36.18Q174.26-36.18 177.82-34.81 181.38-33.45 183.97-31.02 186.56-28.59 188.05-25.05 189.54-21.51 189.54-17.33ZM224.03-12.62L224.03-17.82 225.79-17.82 225.79 0Q221.88 1.76 217.71 1.76L217.71 1.76Q213.78 1.76 210.2 0.22 206.62-1.32 204.04-3.91 201.45-6.49 199.91-10.07 198.37-13.65 198.37-17.58 198.37-21.51 199.91-25.09 201.45-28.66 204.04-31.25 206.62-33.84 210.2-35.38 213.78-36.91 217.71-36.91L217.71-36.91Q222.2-36.91 226.15-34.97 230.11-33.03 232.82-29.64L232.82-29.64 231.4-28.59Q228.94-31.64 225.36-33.4 221.78-35.16 217.71-35.16L217.71-35.16Q214.14-35.16 210.88-33.76 207.62-32.37 205.27-30.02 202.91-27.66 201.52-24.4 200.13-21.14 200.13-17.58 200.13-14.01 201.52-10.75 202.91-7.5 205.27-5.14 207.62-2.78 210.88-1.39 214.14 0 217.71 0L217.71 0Q221 0 224.03-1.17L224.03-1.17 224.03-2.98Q220.98-1.76 217.71-1.76L217.71-1.76Q214.48-1.76 211.55-3.02 208.63-4.27 206.51-6.38 204.4-8.5 203.14-11.43 201.89-14.36 201.89-17.58 201.89-20.8 203.14-23.73 204.4-26.66 206.51-28.77 208.63-30.88 211.55-32.14 214.48-33.4 217.71-33.4L217.71-33.4Q221.39-33.4 224.63-31.81 227.86-30.22 230.09-27.44L230.09-27.44 228.72-26.34Q226.74-28.81 223.86-30.22 220.98-31.64 217.71-31.64L217.71-31.64Q214.85-31.64 212.25-30.53 209.65-29.42 207.76-27.53 205.87-25.63 204.76-23.03 203.64-20.43 203.64-17.58 203.64-14.72 204.76-12.12 205.87-9.52 207.76-7.63 209.65-5.74 212.25-4.63 214.85-3.52 217.71-3.52L217.71-3.52Q221.08-3.52 224.03-4.88L224.03-4.88 224.03-6.69Q221.08-5.27 217.71-5.27L217.71-5.27Q214.36-5.27 211.53-6.92 208.7-8.57 207.05-11.4 205.4-14.23 205.4-17.58 205.4-20.92 207.05-23.75 208.7-26.59 211.53-28.23 214.36-29.88 217.71-29.88L217.71-29.88Q220.56-29.88 223.09-28.65 225.62-27.42 227.33-25.24L227.33-25.24 225.93-24.17Q224.47-26.03 222.31-27.08 220.15-28.13 217.71-28.13L217.71-28.13Q213.34-28.13 210.25-25.02 207.16-21.92 207.16-17.58 207.16-13.23 210.25-10.13 213.34-7.03 217.71-7.03L217.71-7.03Q221.13-7.03 224.03-8.69L224.03-8.69 224.03-10.47Q221.17-8.79 217.71-8.79L217.71-8.79Q214.07-8.79 211.49-11.36 208.92-13.94 208.92-17.58 208.92-21.22 211.49-23.79 214.07-26.37 217.71-26.37L217.71-26.37Q219.76-26.37 221.56-25.48 223.37-24.58 224.59-23.05L224.59-23.05 223.18-21.97Q221.05-24.61 217.71-24.61L217.71-24.61Q214.8-24.61 212.74-22.55 210.68-20.48 210.68-17.58 210.68-14.67 212.74-12.61 214.8-10.55 217.71-10.55L217.71-10.55Q221.44-10.55 224.03-12.62L224.03-12.62ZM234.58 0L234.58-17.82 236.34-17.82 236.34 0 234.58 0ZM231.06 0L231.06-17.82 232.82-17.82 232.82 0 231.06 0ZM227.55 0L227.55-17.82 229.3-17.82 229.3 0 227.55 0ZM253.94-15.04L253.94-16.8 264.53-16.8Q266.63-16.8 268.1-18.12 269.56-19.43 269.56-21.83L269.56-21.83Q269.56-23.58 268.03-24.98 266.51-26.37 264.53-26.37L264.53-26.37 249.44-26.37 249.44 0 247.69 0 247.69-28.13 264.53-28.13Q267.24-28.13 269.28-26.22 271.32-24.32 271.32-21.83L271.32-21.83Q271.32-18.73 269.34-16.88 267.36-15.04 264.53-15.04L264.53-15.04 253.94-15.04ZM253.94-11.52L253.94-13.28 264.53-13.28Q268.05-13.28 270.56-15.67 273.08-18.07 273.08-21.83L273.08-21.83Q273.08-25.02 270.51-27.45 267.95-29.88 264.53-29.88L264.53-29.88 245.93-29.88 245.93 0 244.17 0 244.17-31.64 264.53-31.64Q268.68-31.64 271.76-28.7 274.83-25.76 274.83-21.83L274.83-21.83Q274.83-17.43 271.79-14.48 268.75-11.52 264.53-11.52L264.53-11.52 253.94-11.52ZM253.94-8.01L253.94-9.77 264.53-9.77Q267.78-9.77 270.54-11.33 273.3-12.89 274.94-15.67 276.59-18.46 276.59-21.83L276.59-21.83Q276.59-24.88 274.96-27.55 273.32-30.22 270.52-31.81 267.73-33.4 264.53-33.4L264.53-33.4 242.41-33.4 242.41 0 240.65 0 240.65-35.16 264.53-35.16Q267.29-35.16 269.84-34.07 272.39-32.98 274.25-31.19 276.1-29.39 277.23-26.93 278.35-24.46 278.35-21.83L278.35-21.83Q278.35-17.55 276.4-14.37 274.44-11.18 271.15-9.52L271.15-9.52 274.83 0 272.95 0 269.46-8.81Q268.8-8.59 267.92-8.37L267.92-8.37 271.22 0 269.34 0 266.12-8.08Q265.36-8.01 264.53-8.01L264.53-8.01 267.63 0 265.78 0 262.7-8.01 261.11-8.01 264.07 0 262.21 0 259.23-8.01 253.94-8.01ZM252.96-22.85L252.96 0 251.2 0 251.2-24.61 264.53-24.61Q265.9-24.61 266.85-23.79 267.8-22.97 267.8-21.83L267.8-21.83Q267.8-18.55 264.53-18.55L264.53-18.55 253.94-18.55 253.94-20.31 264.53-20.31Q266.04-20.31 266.04-21.83L266.04-21.83Q266.04-22.24 265.59-22.55 265.14-22.85 264.53-22.85L264.53-22.85 252.96-22.85ZM291.02-35.16L291.02 0 289.26 0 289.26-35.16 291.02-35.16ZM287.5-35.16L287.5 0 285.74 0 285.74-35.16 287.5-35.16ZM283.99-35.16L283.99 0 282.23 0 282.23-35.16 283.99-35.16ZM294.53-13.21L294.53-8.79 311.35-8.79 311.35-7.03 294.53-7.03 294.53-5.27 311.35-5.27 311.35-3.52 294.53-3.52 294.53-1.76 311.35-1.76 311.35 0 292.78 0 292.78-35.16 311.35-35.16 311.35-33.4 294.53-33.4 294.53-31.64 311.35-31.64 311.35-29.88 294.53-29.88 294.53-28.13 311.35-28.13 311.35-26.37 294.53-26.37 294.53-22 310.38-22 310.38-20.24 294.53-20.24 294.53-18.48 310.38-18.48 310.38-16.72 294.53-16.72 294.53-14.97 310.38-14.97 310.38-13.21 294.53-13.21ZM324.36-35.16L324.36 0 322.61 0 322.61-35.16 324.36-35.16ZM320.85-35.16L320.85 0 319.09 0 319.09-35.16 320.85-35.16ZM317.33-35.16L317.33 0 315.58 0 315.58-35.16 317.33-35.16ZM327.88-13.21L327.88-8.79 344.7-8.79 344.7-7.03 327.88-7.03 327.88-5.27 344.7-5.27 344.7-3.52 327.88-3.52 327.88-1.76 344.7-1.76 344.7 0 326.12 0 326.12-35.16 344.7-35.16 344.7-33.4 327.88-33.4 327.88-31.64 344.7-31.64 344.7-29.88 327.88-29.88 327.88-28.13 344.7-28.13 344.7-26.37 327.88-26.37 327.88-22 343.73-22 343.73-20.24 327.88-20.24 327.88-18.48 343.73-18.48 343.73-16.72 327.88-16.72 327.88-14.97 343.73-14.97 343.73-13.21 327.88-13.21ZM376.66-35.16L376.66-14.18 374.9-17.38 374.9-35.16 376.66-35.16ZM380.17-35.16L380.17-8.11 378.41-11.08 378.41-35.16 380.17-35.16ZM355.95 0L355.95-20.97 357.71-17.77 357.71 0 355.95 0ZM352.44 0L352.44-27.29 354.2-24.07 354.2 0 352.44 0ZM373.41 0L353.05-35.16 355.1-35.16 375.46 0 373.41 0ZM377.51 0L357.2-35.16 359.27-35.16 379.61 0 377.51 0ZM381.61 0L361.33-35.16 363.38-35.16 381.93-3.05 381.93-35.16 383.69-35.16 383.69 0 381.61 0ZM369.28 0L350.68-32.13 350.68 0 348.92 0 348.92-35.16 351.02-35.16 371.31 0 369.28 0ZM409.86-16.72L409.86-16.72 407.07-16.72Q401.95-16.72 399.19-18.81 396.43-20.9 396.43-24.56L396.43-24.56Q396.43-27.98 399.67-30.26 402.92-32.54 408.78-32.54L408.78-32.54Q412.69-32.54 416.07-31.47 419.45-30.4 421.7-28.44L421.7-28.44 420.33-27.34Q418.33-28.98 415.3-29.88 412.27-30.79 408.78-30.79L408.78-30.79Q403.63-30.79 400.91-29.03 398.19-27.27 398.19-24.56L398.19-24.56Q398.19-21.63 400.42-20.06 402.65-18.48 407.07-18.48L407.07-18.48 409.76-18.48Q414.96-18.48 417.73-16.39 420.5-14.31 420.5-10.64L420.5-10.64Q420.5-7.23 417.25-4.94 414.01-2.66 408.15-2.66L408.15-2.66Q404.24-2.66 400.86-3.74 397.48-4.81 395.23-6.76L395.23-6.76 396.6-7.86Q398.6-6.23 401.63-5.32 404.66-4.42 408.15-4.42L408.15-4.42Q413.3-4.42 416.02-6.18 418.74-7.93 418.74-10.64L418.74-10.64Q418.74-13.57 416.51-15.15 414.27-16.72 409.86-16.72ZM409.86-13.21L409.86-13.21 407.07-13.21Q400.28-13.21 396.6-16.3 392.91-19.38 392.91-24.56L392.91-24.56Q392.91-26.93 393.96-29 395.01-31.08 396.98-32.65 398.94-34.23 401.99-35.14 405.05-36.06 408.78-36.06L408.78-36.06Q413.49-36.06 417.59-34.63 421.7-33.2 424.43-30.64L424.43-30.64 423.01-29.59Q420.52-31.84 416.79-33.07 413.05-34.3 408.78-34.3L408.78-34.3Q402.19-34.3 398.43-31.52 394.67-28.74 394.67-24.56L394.67-24.56Q394.67-20.14 397.89-17.55 401.11-14.97 407.07-14.97L407.07-14.97 409.76-14.97Q416.98-14.97 416.98-10.64L416.98-10.64Q416.98-8.69 414.77-7.43 412.57-6.18 408.15-6.18L408.15-6.18Q405.05-6.18 402.38-6.9 399.72-7.62 397.99-8.96L397.99-8.96 399.38-10.03Q402.43-7.93 408.15-7.93L408.15-7.93Q411.81-7.93 413.52-8.69 415.23-9.45 415.23-10.64L415.23-10.64Q415.23-12.04 414.03-12.62 412.83-13.21 409.86-13.21ZM409.86-20.24L409.86-20.24 407.07-20.24Q399.94-20.24 399.94-24.56L399.94-24.56Q399.94-26.51 402.15-27.77 404.36-29.03 408.78-29.03L408.78-29.03Q411.88-29.03 414.54-28.31 417.2-27.59 418.94-26.25L418.94-26.25 417.55-25.17Q414.49-27.27 408.78-27.27L408.78-27.27Q405.12-27.27 403.41-26.51 401.7-25.76 401.7-24.56L401.7-24.56Q401.7-23.17 402.9-22.58 404.09-22 407.07-22L407.07-22 409.86-22Q416.64-22 420.33-18.91 424.02-15.82 424.02-10.64L424.02-10.64Q424.02-8.28 422.97-6.2 421.92-4.13 419.95-2.55 417.99-0.98 414.93-0.06 411.88 0.85 408.15 0.85L408.15 0.85Q403.43 0.85 399.33-0.57 395.23-2 392.5-4.57L392.5-4.57 393.91-5.62Q396.4-3.37 400.14-2.14 403.87-0.9 408.15-0.9L408.15-0.9Q414.74-0.9 418.5-3.69 422.26-6.47 422.26-10.64L422.26-10.64Q422.26-15.06 419.03-17.65 415.81-20.24 409.86-20.24ZM434.07 0L434.07-25.42 435.83-25.42 435.83 0 434.07 0ZM453.41-33.4L427.04-33.4 427.04-35.16 453.41-35.16 453.41-33.4ZM453.41-29.88L427.04-29.88 427.04-31.64 453.41-31.64 453.41-29.88ZM453.41-26.37L427.04-26.37 427.04-28.13 453.41-28.13 453.41-26.37ZM444.62 0L444.62-25.42 446.38-25.42 446.38 0 444.62 0ZM441.1 0L441.1-25.42 442.86-25.42 442.86 0 441.1 0ZM437.59 0L437.59-25.42 439.34-25.42 439.34 0 437.59 0ZM466.05-35.16L466.05 0 464.29 0 464.29-35.16 466.05-35.16ZM462.54-35.16L462.54 0 460.78 0 460.78-35.16 462.54-35.16ZM459.02-35.16L459.02 0 457.26 0 457.26-35.16 459.02-35.16ZM469.57-13.21L469.57-8.79 486.39-8.79 486.39-7.03 469.57-7.03 469.57-5.27 486.39-5.27 486.39-3.52 469.57-3.52 469.57-1.76 486.39-1.76 486.39 0 467.81 0 467.81-35.16 486.39-35.16 486.39-33.4 469.57-33.4 469.57-31.64 486.39-31.64 486.39-29.88 469.57-29.88 469.57-28.13 486.39-28.13 486.39-26.37 469.57-26.37 469.57-22 485.41-22 485.41-20.24 469.57-20.24 469.57-18.48 485.41-18.48 485.41-16.72 469.57-16.72 469.57-14.97 485.41-14.97 485.41-13.21 469.57-13.21ZM504.26-14.79L504.26-16.55 511.7-16.55Q513.9-16.55 515.44-17.87 516.98-19.19 516.98-21.58L516.98-21.58Q516.98-23.44 515.37-24.9 513.75-26.37 511.7-26.37L511.7-26.37 499.4-26.37 499.4 0 497.64 0 497.64-28.13 511.7-28.13Q514.51-28.13 516.62-26.15 518.73-24.17 518.73-21.58L518.73-21.58Q518.73-18.48 516.68-16.64 514.63-14.79 511.7-14.79L511.7-14.79 504.26-14.79ZM504.26-11.28L504.26-13.04 511.7-13.04Q515.32-13.04 517.9-15.43 520.49-17.82 520.49-21.58L520.49-21.58Q520.49-24.88 517.86-27.38 515.22-29.88 511.7-29.88L511.7-29.88 495.88-29.88 495.88 0 494.13 0 494.13-31.64 511.7-31.64Q515.95-31.64 519.1-28.63 522.25-25.61 522.25-21.58L522.25-21.58Q522.25-17.19 519.14-14.23 516.02-11.28 511.7-11.28L511.7-11.28 504.26-11.28ZM504.26-7.76L504.26-9.52 511.7-9.52Q515-9.52 517.82-11.08 520.64-12.65 522.32-15.43 524.01-18.21 524.01-21.58L524.01-21.58Q524.01-24.68 522.34-27.42 520.66-30.15 517.82-31.77 514.97-33.4 511.7-33.4L511.7-33.4 492.37-33.4 492.37 0 490.61 0 490.61-35.16 511.7-35.16Q514.49-35.16 517.09-34.06 519.69-32.96 521.59-31.12 523.5-29.27 524.63-26.77 525.77-24.27 525.77-21.58L525.77-21.58Q525.77-18.43 524.64-15.8 523.52-13.16 521.59-11.41 519.66-9.67 517.11-8.72 514.56-7.76 511.7-7.76L511.7-7.76 504.26-7.76ZM502.91-22.85L502.91 0 501.16 0 501.16-24.61 511.7-24.61Q513.14-24.61 514.18-23.72 515.22-22.83 515.22-21.58L515.22-21.58Q515.22-18.31 511.7-18.31L511.7-18.31 504.26-18.31 504.26-20.07 511.7-20.07Q513.46-20.07 513.46-21.58L513.46-21.58Q513.46-22.12 512.95-22.49 512.44-22.85 511.7-22.85L511.7-22.85 502.91-22.85ZM531.11-1.78L529.35-1.78 529.35-8.81 531.11-8.81 531.11-1.78ZM529.35 3.49L529.35 3.49 529.35 1.73Q530.38 1.73 531.07 1.51 531.77 1.29 532.11 1.03 532.45 0.76 532.64 0.2 532.82-0.37 532.84-0.72 532.87-1.07 532.87-1.78L532.87-1.78 532.87-8.81 534.63-8.81 534.63-1.78Q534.63-1.25 534.61-0.93 534.6-0.61 534.5 0.01 534.41 0.63 534.21 1.04 534.02 1.44 533.64 1.95 533.26 2.47 532.71 2.77 532.16 3.08 531.31 3.28 530.45 3.49 529.35 3.49ZM529.35 7.01L529.35 7.01 529.35 5.25Q530.5 5.25 531.44 5.11 532.38 4.98 533.06 4.79 533.75 4.59 534.28 4.2 534.82 3.81 535.16 3.48 535.5 3.15 535.75 2.58 535.99 2 536.11 1.61 536.24 1.22 536.3 0.51 536.36-0.2 536.37-0.6 536.38-1 536.38-1.78L536.38-1.78 536.38-8.81 538.14-8.81 538.14-1.78Q538.14-1 538.13-0.55 538.12-0.1 538.03 0.73 537.95 1.56 537.8 2.08 537.65 2.59 537.35 3.32 537.04 4.05 536.62 4.52 536.19 4.98 535.52 5.51 534.85 6.03 533.99 6.32 533.14 6.62 531.95 6.81 530.77 7.01 529.35 7.01ZM561.4-14.79L561.4-16.55 568.85-16.55Q571.05-16.55 572.58-17.87 574.12-19.19 574.12-21.58L574.12-21.58Q574.12-23.44 572.51-24.9 570.9-26.37 568.85-26.37L568.85-26.37 556.54-26.37 556.54 0 554.79 0 554.79-28.13 568.85-28.13Q571.66-28.13 573.77-26.15 575.88-24.17 575.88-21.58L575.88-21.58Q575.88-18.48 573.83-16.64 571.78-14.79 568.85-14.79L568.85-14.79 561.4-14.79ZM561.4-11.28L561.4-13.04 568.85-13.04Q572.46-13.04 575.05-15.43 577.64-17.82 577.64-21.58L577.64-21.58Q577.64-24.88 575-27.38 572.36-29.88 568.85-29.88L568.85-29.88 553.03-29.88 553.03 0 551.27 0 551.27-31.64 568.85-31.64Q573.1-31.64 576.25-28.63 579.4-25.61 579.4-21.58L579.4-21.58Q579.4-17.19 576.28-14.23 573.17-11.28 568.85-11.28L568.85-11.28 561.4-11.28ZM561.4-7.76L561.4-9.52 568.85-9.52Q572.14-9.52 574.96-11.08 577.78-12.65 579.47-15.43 581.15-18.21 581.15-21.58L581.15-21.58Q581.15-24.68 579.48-27.42 577.81-30.15 574.96-31.77 572.12-33.4 568.85-33.4L568.85-33.4 549.51-33.4 549.51 0 547.76 0 547.76-35.16 568.85-35.16Q571.63-35.16 574.23-34.06 576.83-32.96 578.74-31.12 580.64-29.27 581.78-26.77 582.91-24.27 582.91-21.58L582.91-21.58Q582.91-18.43 581.79-15.8 580.67-13.16 578.74-11.41 576.81-9.67 574.26-8.72 571.71-7.76 568.85-7.76L568.85-7.76 561.4-7.76ZM560.06-22.85L560.06 0 558.3 0 558.3-24.61 568.85-24.61Q570.29-24.61 571.33-23.72 572.36-22.83 572.36-21.58L572.36-21.58Q572.36-18.31 568.85-18.31L568.85-18.31 561.4-18.31 561.4-20.07 568.85-20.07Q570.61-20.07 570.61-21.58L570.61-21.58Q570.61-22.12 570.09-22.49 569.58-22.85 568.85-22.85L568.85-22.85 560.06-22.85ZM600.12-15.04L600.12-16.8 610.72-16.8Q612.82-16.8 614.28-18.12 615.75-19.43 615.75-21.83L615.75-21.83Q615.75-23.58 614.22-24.98 612.69-26.37 610.72-26.37L610.72-26.37 595.63-26.37 595.63 0 593.87 0 593.87-28.13 610.72-28.13Q613.43-28.13 615.47-26.22 617.5-24.32 617.5-21.83L617.5-21.83Q617.5-18.73 615.53-16.88 613.55-15.04 610.72-15.04L610.72-15.04 600.12-15.04ZM600.12-11.52L600.12-13.28 610.72-13.28Q614.23-13.28 616.75-15.67 619.26-18.07 619.26-21.83L619.26-21.83Q619.26-25.02 616.7-27.45 614.13-29.88 610.72-29.88L610.72-29.88 592.11-29.88 592.11 0 590.36 0 590.36-31.64 610.72-31.64Q614.87-31.64 617.94-28.7 621.02-25.76 621.02-21.83L621.02-21.83Q621.02-17.43 617.98-14.48 614.94-11.52 610.72-11.52L610.72-11.52 600.12-11.52ZM600.12-8.01L600.12-9.77 610.72-9.77Q613.96-9.77 616.72-11.33 619.48-12.89 621.13-15.67 622.78-18.46 622.78-21.83L622.78-21.83Q622.78-24.88 621.14-27.55 619.51-30.22 616.71-31.81 613.91-33.4 610.72-33.4L610.72-33.4 588.6-33.4 588.6 0 586.84 0 586.84-35.16 610.72-35.16Q613.48-35.16 616.03-34.07 618.58-32.98 620.43-31.19 622.29-29.39 623.41-26.93 624.53-24.46 624.53-21.83L624.53-21.83Q624.53-17.55 622.58-14.37 620.63-11.18 617.33-9.52L617.33-9.52 621.02 0 619.14 0 615.65-8.81Q614.99-8.59 614.11-8.37L614.11-8.37 617.41 0 615.53 0 612.3-8.08Q611.55-8.01 610.72-8.01L610.72-8.01 613.82 0 611.96 0 608.89-8.01 607.3-8.01 610.25 0 608.4 0 605.42-8.01 600.12-8.01ZM599.14-22.85L599.14 0 597.39 0 597.39-24.61 610.72-24.61Q612.08-24.61 613.04-23.79 613.99-22.97 613.99-21.83L613.99-21.83Q613.99-18.55 610.72-18.55L610.72-18.55 600.12-18.55 600.12-20.31 610.72-20.31Q612.23-20.31 612.23-21.83L612.23-21.83Q612.23-22.24 611.78-22.55 611.33-22.85 610.72-22.85L610.72-22.85 599.14-22.85ZM641.85-22.55Q639.79-20.48 639.79-17.58 639.79-14.67 641.85-12.61 643.92-10.55 646.82-10.55 649.73-10.55 651.79-12.61 653.85-14.67 653.85-17.58 653.85-20.48 651.79-22.55 649.73-24.61 646.82-24.61 643.92-24.61 641.85-22.55ZM640.61-11.36Q638.03-13.94 638.03-17.58 638.03-21.22 640.61-23.79 643.18-26.37 646.82-26.37 650.46-26.37 653.04-23.79 655.61-21.22 655.61-17.58 655.61-13.94 653.04-11.36 650.46-8.79 646.82-8.79 643.18-8.79 640.61-11.36ZM639.36-25.02Q636.28-21.92 636.28-17.58 636.28-13.23 639.36-10.13 642.45-7.03 646.82-7.03 651.19-7.03 654.28-10.13 657.37-13.23 657.37-17.58 657.37-21.92 654.28-25.02 651.19-28.13 646.82-28.13 642.45-28.13 639.36-25.02ZM636.17-11.4Q634.52-14.23 634.52-17.58 634.52-20.92 636.17-23.75 637.81-26.59 640.65-28.23 643.48-29.88 646.82-29.88 650.17-29.88 653-28.23 655.83-26.59 657.48-23.75 659.13-20.92 659.13-17.58 659.13-14.23 657.48-11.4 655.83-8.57 653-6.92 650.17-5.27 646.82-5.27 643.48-5.27 640.65-6.92 637.81-8.57 636.17-11.4ZM633.87-23.03Q632.76-20.43 632.76-17.58 632.76-14.72 633.87-12.12 634.98-9.52 636.87-7.63 638.77-5.74 641.37-4.63 643.97-3.52 646.82-3.52 649.68-3.52 652.28-4.63 654.88-5.74 656.77-7.63 658.66-9.52 659.77-12.12 660.88-14.72 660.88-17.58 660.88-20.43 659.77-23.03 658.66-25.63 656.77-27.53 654.88-29.42 652.28-30.53 649.68-31.64 646.82-31.64 643.97-31.64 641.37-30.53 638.77-29.42 636.87-27.53 634.98-25.63 633.87-23.03ZM632.26-11.43Q631-14.36 631-17.58 631-20.8 632.26-23.73 633.52-26.66 635.63-28.77 637.74-30.88 640.67-32.14 643.6-33.4 646.82-33.4 650.05-33.4 652.97-32.14 655.9-30.88 658.02-28.77 660.13-26.66 661.39-23.73 662.64-20.8 662.64-17.58 662.64-14.36 661.39-11.43 660.13-8.5 658.02-6.38 655.9-4.27 652.97-3.02 650.05-1.76 646.82-1.76 643.6-1.76 640.67-3.02 637.74-4.27 635.63-6.38 633.52-8.5 632.26-11.43ZM630.64-24.4Q629.24-21.14 629.24-17.58 629.24-14.01 630.64-10.75 632.03-7.5 634.38-5.14 636.74-2.78 640-1.39 643.26 0 646.82 0 650.39 0 653.65-1.39 656.91-2.78 659.26-5.14 661.62-7.5 663.01-10.75 664.4-14.01 664.4-17.58 664.4-21.14 663.01-24.4 661.62-27.66 659.26-30.02 656.91-32.37 653.65-33.76 650.39-35.16 646.82-35.16 643.26-35.16 640-33.76 636.74-32.37 634.38-30.02 632.03-27.66 630.64-24.4ZM629.02-10.07Q627.49-13.65 627.49-17.58 627.49-21.51 629.02-25.09 630.56-28.66 633.15-31.25 635.74-33.84 639.32-35.38 642.89-36.91 646.82-36.91 650.75-36.91 654.33-35.38 657.91-33.84 660.49-31.25 663.08-28.66 664.62-25.09 666.16-21.51 666.16-17.58 666.16-13.65 664.62-10.07 663.08-6.49 660.49-3.91 657.91-1.32 654.33 0.22 650.75 1.76 646.82 1.76 642.89 1.76 639.32 0.22 635.74-1.32 633.15-3.91 630.56-6.49 629.02-10.07ZM676.31 0L676.31-25.42 678.07-25.42 678.07 0 676.31 0ZM695.65-33.4L669.28-33.4 669.28-35.16 695.65-35.16 695.65-33.4ZM695.65-29.88L669.28-29.88 669.28-31.64 695.65-31.64 695.65-29.88ZM695.65-26.37L669.28-26.37 669.28-28.13 695.65-28.13 695.65-26.37ZM686.86 0L686.86-25.42 688.62-25.42 688.62 0 686.86 0ZM683.34 0L683.34-25.42 685.1-25.42 685.1 0 683.34 0ZM679.83 0L679.83-25.42 681.59-25.42 681.59 0 679.83 0ZM708.29-35.16L708.29 0 706.53 0 706.53-35.16 708.29-35.16ZM704.78-35.16L704.78 0 703.02 0 703.02-35.16 704.78-35.16ZM701.26-35.16L701.26 0 699.5 0 699.5-35.16 701.26-35.16ZM711.81-13.21L711.81-8.79 728.63-8.79 728.63-7.03 711.81-7.03 711.81-5.27 728.63-5.27 728.63-3.52 711.81-3.52 711.81-1.76 728.63-1.76 728.63 0 710.05 0 710.05-35.16 728.63-35.16 728.63-33.4 711.81-33.4 711.81-31.64 728.63-31.64 728.63-29.88 711.81-29.88 711.81-28.13 728.63-28.13 728.63-26.37 711.81-26.37 711.81-22 727.65-22 727.65-20.24 711.81-20.24 711.81-18.48 727.65-18.48 727.65-16.72 711.81-16.72 711.81-14.97 727.65-14.97 727.65-13.21 711.81-13.21ZM758.14-23.05L758.14-23.05 756.73-21.97Q754.6-24.61 751.26-24.61L751.26-24.61Q748.35-24.61 746.29-22.55 744.23-20.48 744.23-17.58 744.23-14.67 746.29-12.61 748.35-10.55 751.26-10.55L751.26-10.55Q752.89-10.55 754.32-11.25 755.75-11.96 756.75-13.21L756.75-13.21 758.12-12.06Q756.9-10.52 755.09-9.66 753.28-8.79 751.26-8.79L751.26-8.79Q747.62-8.79 745.04-11.36 742.47-13.94 742.47-17.58 742.47-21.22 745.04-23.79 747.62-26.37 751.26-26.37L751.26-26.37Q753.31-26.37 755.12-25.48 756.92-24.58 758.14-23.05ZM760.88-25.24L760.88-25.24 759.49-24.17Q758.02-26.03 755.86-27.08 753.7-28.13 751.26-28.13L751.26-28.13Q746.89-28.13 743.8-25.02 740.71-21.92 740.71-17.58 740.71-13.23 743.8-10.13 746.89-7.03 751.26-7.03L751.26-7.03Q753.7-7.03 755.87-8.09 758.05-9.16 759.51-11.01L759.51-11.01 760.85-9.89Q759.14-7.74 756.63-6.51 754.11-5.27 751.26-5.27L751.26-5.27Q747.91-5.27 745.08-6.92 742.25-8.57 740.6-11.4 738.95-14.23 738.95-17.58 738.95-20.92 740.6-23.75 742.25-26.59 745.08-28.23 747.91-29.88 751.26-29.88L751.26-29.88Q754.11-29.88 756.64-28.65 759.17-27.42 760.88-25.24ZM763.64-27.44L763.64-27.44 762.27-26.34Q760.29-28.81 757.41-30.22 754.53-31.64 751.26-31.64L751.26-31.64Q748.4-31.64 745.8-30.53 743.2-29.42 741.31-27.53 739.42-25.63 738.31-23.03 737.2-20.43 737.2-17.58 737.2-14.72 738.31-12.12 739.42-9.52 741.31-7.63 743.2-5.74 745.8-4.63 748.4-3.52 751.26-3.52L751.26-3.52Q754.53-3.52 757.41-4.93 760.29-6.35 762.27-8.81L762.27-8.81 763.59-7.67Q761.37-4.91 758.14-3.33 754.92-1.76 751.26-1.76L751.26-1.76Q748.04-1.76 745.11-3.02 742.18-4.27 740.06-6.38 737.95-8.5 736.7-11.43 735.44-14.36 735.44-17.58 735.44-20.8 736.7-23.73 737.95-26.66 740.06-28.77 742.18-30.88 745.11-32.14 748.04-33.4 751.26-33.4L751.26-33.4Q754.94-33.4 758.18-31.81 761.41-30.22 763.64-27.44ZM766.37-29.64L766.37-29.64 764.95-28.59Q762.49-31.64 758.91-33.4 755.34-35.16 751.26-35.16L751.26-35.16Q747.69-35.16 744.43-33.76 741.18-32.37 738.82-30.02 736.46-27.66 735.07-24.4 733.68-21.14 733.68-17.58 733.68-14.01 735.07-10.75 736.46-7.5 738.82-5.14 741.18-2.78 744.43-1.39 747.69 0 751.26 0L751.26 0Q755.34 0 758.91-1.76 762.49-3.52 764.95-6.57L764.95-6.57 766.35-5.49Q763.64-2.12 759.69-0.18 755.75 1.76 751.26 1.76L751.26 1.76Q747.33 1.76 743.75 0.22 740.17-1.32 737.59-3.91 735-6.49 733.46-10.07 731.92-13.65 731.92-17.58 731.92-21.51 733.46-25.09 735-28.66 737.59-31.25 740.17-33.84 743.75-35.38 747.33-36.91 751.26-36.91L751.26-36.91Q755.75-36.91 759.71-34.97 763.66-33.03 766.37-29.64ZM775.91 0L775.91-25.42 777.67-25.42 777.67 0 775.91 0ZM795.25-33.4L768.88-33.4 768.88-35.16 795.25-35.16 795.25-33.4ZM795.25-29.88L768.88-29.88 768.88-31.64 795.25-31.64 795.25-29.88ZM795.25-26.37L768.88-26.37 768.88-28.13 795.25-28.13 795.25-26.37ZM786.46 0L786.46-25.42 788.22-25.42 788.22 0 786.46 0ZM782.95 0L782.95-25.42 784.7-25.42 784.7 0 782.95 0ZM779.43 0L779.43-25.42 781.19-25.42 781.19 0 779.43 0ZM832.26-35.16L832.26-14.18 830.5-17.38 830.5-35.16 832.26-35.16ZM835.77-35.16L835.77-8.11 834.01-11.08 834.01-35.16 835.77-35.16ZM811.55 0L811.55-20.97 813.31-17.77 813.31 0 811.55 0ZM808.04 0L808.04-27.29 809.8-24.07 809.8 0 808.04 0ZM829.01 0L808.65-35.16 810.7-35.16 831.06 0 829.01 0ZM833.11 0L812.8-35.16 814.87-35.16 835.21 0 833.11 0ZM837.21 0L816.92-35.16 818.98-35.16 837.53-3.05 837.53-35.16 839.29-35.16 839.29 0 837.21 0ZM824.88 0L806.28-32.13 806.28 0 804.52 0 804.52-35.16 806.62-35.16 826.91 0 824.88 0ZM868.83 0L868.83-17.33Q868.83-20.46 866.9-22.17 864.97-23.88 861.8-23.88L861.8-23.88Q859.11-23.88 857.18-22.02 855.25-20.17 855.25-17.58L855.25-17.58Q855.25-16.11 855.64-14.95 856.03-13.79 856.7-13.02 857.38-12.26 858.3-11.76 859.23-11.25 860.24-11.04 861.26-10.82 862.41-10.82L862.41-10.82Q865.19-10.82 867.48-12.18L867.48-12.18 867.48-10.42Q865.12-9.18 862.38-9.18L862.38-9.18Q860.62-9.18 859.07-9.66 857.52-10.13 856.25-11.1 854.98-12.06 854.24-13.73 853.49-15.41 853.49-17.58L853.49-17.58Q853.49-20.95 855.86-23.29 858.23-25.63 861.8-25.63L861.8-25.63Q865.73-25.63 868.16-23.43 870.58-21.22 870.58-17.33L870.58-17.33 870.58 0 868.83 0ZM874.1-17.33L874.1-17.33 874.1 0 872.34 0 872.34-17.33Q872.34-21.95 869.39-24.67 866.43-27.39 861.8-27.39L861.8-27.39Q857.5-27.39 854.62-24.54 851.74-21.68 851.74-17.58L851.74-17.58Q851.74-15.09 852.6-13.11 853.47-11.13 854.96-9.94 856.45-8.74 858.29-8.12 860.14-7.5 862.19-7.5L862.19-7.5Q864.97-7.5 867.48-8.79L867.48-8.79 867.48-6.93Q864.85-5.83 862.16-5.83L862.16-5.83Q859.74-5.83 857.57-6.58 855.4-7.32 853.69-8.75 851.98-10.18 850.98-12.46 849.98-14.75 849.98-17.58L849.98-17.58Q849.98-22.39 853.38-25.77 856.79-29.15 861.8-29.15L861.8-29.15Q865.31-29.15 868.09-27.72 870.88-26.29 872.49-23.58 874.1-20.87 874.1-17.33ZM877.62-17.33L877.62-17.33 877.62 0 875.86 0 875.86-17.33Q875.86-21.36 874.01-24.48 872.17-27.59 868.97-29.25 865.77-30.91 861.8-30.91L861.8-30.91Q858.01-30.91 854.89-29.11 851.76-27.32 849.99-24.27 848.22-21.22 848.22-17.58L848.22-17.58Q848.22-14.45 849.37-11.88 850.52-9.3 852.46-7.64 854.4-5.98 856.88-5.07 859.35-4.15 862.06-4.15L862.06-4.15Q864.82-4.15 867.48-5.3L867.48-5.3 867.48-3.52Q864.7-2.47 862.01-2.47L862.01-2.47Q857.79-2.47 854.25-4.37 850.71-6.27 848.59-9.77 846.46-13.26 846.46-17.58L846.46-17.58Q846.46-20.65 847.65-23.44 848.83-26.22 850.86-28.25 852.88-30.27 855.74-31.47 858.6-32.67 861.8-32.67L861.8-32.67Q866.26-32.67 869.86-30.76 873.47-28.86 875.54-25.34 877.62-21.83 877.62-17.33ZM881.13-17.33L881.13-17.33 881.13 0 879.37 0 879.37-17.33Q879.37-22.31 877.05-26.23 874.73-30.15 870.73-32.29 866.73-34.42 861.8-34.42L861.8-34.42Q857.06-34.42 853.13-32.15 849.2-29.88 846.95-26.01 844.71-22.14 844.71-17.58L844.71-17.58Q844.71-14.58 845.67-11.88 846.63-9.18 848.31-7.17 849.98-5.15 852.16-3.69 854.35-2.22 856.88-1.46 859.4-0.71 862.01-0.71L862.01-0.71Q864.9-0.71 867.48-1.81L867.48-1.81 867.48 0Q864.77 0.95 861.92 0.95L861.92 0.95Q858.96 0.95 856.17 0.12 853.37-0.71 850.99-2.33 848.61-3.96 846.8-6.16 845-8.37 843.97-11.33 842.95-14.28 842.95-17.58L842.95-17.58Q842.95-21.36 844.38-24.79 845.8-28.22 848.28-30.73 850.76-33.23 854.29-34.7 857.82-36.18 861.8-36.18L861.8-36.18Q865.85-36.18 869.41-34.81 872.98-33.45 875.56-31.02 878.15-28.59 879.64-25.05 881.13-21.51 881.13-17.33ZM891.7 0L891.7-25.42 893.46-25.42 893.46 0 891.7 0ZM911.04-33.4L884.67-33.4 884.67-35.16 911.04-35.16 911.04-33.4ZM911.04-29.88L884.67-29.88 884.67-31.64 911.04-31.64 911.04-29.88ZM911.04-26.37L884.67-26.37 884.67-28.13 911.04-28.13 911.04-26.37ZM902.25 0L902.25-25.42 904-25.42 904 0 902.25 0ZM898.73 0L898.73-25.42 900.49-25.42 900.49 0 898.73 0ZM895.22 0L895.22-25.42 896.97-25.42 896.97 0 895.22 0ZM937.96-15.58L937.96-15.58 937.96-35.16 939.72-35.16 939.72-15.58Q939.72-12.79 937.58-10.79 935.45-8.79 932.44-8.79 929.44-8.79 927.31-10.79 925.17-12.79 925.17-15.58L925.17-15.58 925.17-35.16 926.93-35.16 926.93-15.58Q926.93-13.5 928.55-12.02 930.17-10.55 932.44-10.55 934.72-10.55 936.34-12.02 937.96-13.5 937.96-15.58ZM941.48-15.58L941.48-15.58 941.48-35.16 943.24-35.16 943.24-15.58Q943.24-11.3 940.06-8.29 936.89-5.27 932.44-5.27 928-5.27 924.83-8.29 921.65-11.3 921.65-15.58L921.65-15.58 921.65-35.16 923.41-35.16 923.41-15.58Q923.41-12.04 926.06-9.53 928.71-7.03 932.44-7.03L932.44-7.03Q936.16-7.03 938.82-9.53 941.48-12.04 941.48-15.58ZM944.99-15.58L944.99-15.58 944.99-35.16 946.75-35.16 946.75-15.58Q946.75-11.84 944.82-8.65 942.89-5.47 939.6-3.61 936.3-1.76 932.44-1.76 928.59-1.76 925.29-3.61 922-5.47 920.07-8.65 918.14-11.84 918.14-15.58L918.14-15.58 918.14-35.16 919.9-35.16 919.9-15.58Q919.9-12.33 921.58-9.55 923.26-6.76 926.16-5.14 929.05-3.52 932.44-3.52 935.84-3.52 938.73-5.14 941.62-6.76 943.31-9.55 944.99-12.33 944.99-15.58ZM948.51-15.58L948.51-15.58 948.51-35.16 950.27-35.16 950.27-15.58Q950.27-12.06 948.85-8.85 947.43-5.64 945.04-3.32 942.65-1 939.35 0.38 936.06 1.76 932.44 1.76 928.83 1.76 925.54 0.38 922.24-1 919.85-3.32 917.45-5.64 916.04-8.85 914.62-12.06 914.62-15.58L914.62-15.58 914.62-35.16 916.38-35.16 916.38-15.58Q916.38-11.38 918.54-7.79 920.7-4.2 924.4-2.1 928.1 0 932.44 0 936.79 0 940.49-2.1 944.19-4.2 946.35-7.79 948.51-11.38 948.51-15.58ZM967.96-15.04L967.96-16.8 978.56-16.8Q980.66-16.8 982.12-18.12 983.59-19.43 983.59-21.83L983.59-21.83Q983.59-23.58 982.06-24.98 980.54-26.37 978.56-26.37L978.56-26.37 963.47-26.37 963.47 0 961.71 0 961.71-28.13 978.56-28.13Q981.27-28.13 983.31-26.22 985.35-24.32 985.35-21.83L985.35-21.83Q985.35-18.73 983.37-16.88 981.39-15.04 978.56-15.04L978.56-15.04 967.96-15.04ZM967.96-11.52L967.96-13.28 978.56-13.28Q982.08-13.28 984.59-15.67 987.11-18.07 987.11-21.83L987.11-21.83Q987.11-25.02 984.54-27.45 981.98-29.88 978.56-29.88L978.56-29.88 959.96-29.88 959.96 0 958.2 0 958.2-31.64 978.56-31.64Q982.71-31.64 985.79-28.7 988.86-25.76 988.86-21.83L988.86-21.83Q988.86-17.43 985.82-14.48 982.78-11.52 978.56-11.52L978.56-11.52 967.96-11.52ZM967.96-8.01L967.96-9.77 978.56-9.77Q981.81-9.77 984.57-11.33 987.32-12.89 988.97-15.67 990.62-18.46 990.62-21.83L990.62-21.83Q990.62-24.88 988.98-27.55 987.35-30.22 984.55-31.81 981.76-33.4 978.56-33.4L978.56-33.4 956.44-33.4 956.44 0 954.68 0 954.68-35.16 978.56-35.16Q981.32-35.16 983.87-34.07 986.42-32.98 988.28-31.19 990.13-29.39 991.26-26.93 992.38-24.46 992.38-21.83L992.38-21.83Q992.38-17.55 990.43-14.37 988.47-11.18 985.18-9.52L985.18-9.52 988.86 0 986.98 0 983.49-8.81Q982.83-8.59 981.95-8.37L981.95-8.37 985.25 0 983.37 0 980.15-8.08Q979.39-8.01 978.56-8.01L978.56-8.01 981.66 0 979.81 0 976.73-8.01 975.14-8.01 978.1 0 976.24 0 973.26-8.01 967.96-8.01ZM966.99-22.85L966.99 0 965.23 0 965.23-24.61 978.56-24.61Q979.93-24.61 980.88-23.79 981.83-22.97 981.83-21.83L981.83-21.83Q981.83-18.55 978.56-18.55L978.56-18.55 967.96-18.55 967.96-20.31 978.56-20.31Q980.07-20.31 980.07-21.83L980.07-21.83Q980.07-22.24 979.62-22.55 979.17-22.85 978.56-22.85L978.56-22.85 966.99-22.85ZM1005.05-35.16L1005.05 0 1003.29 0 1003.29-35.16 1005.05-35.16ZM1001.53-35.16L1001.53 0 999.77 0 999.77-35.16 1001.53-35.16ZM998.02-35.16L998.02 0 996.26 0 996.26-35.16 998.02-35.16ZM1008.56-13.21L1008.56-8.79 1025.38-8.79 1025.38-7.03 1008.56-7.03 1008.56-5.27 1025.38-5.27 1025.38-3.52 1008.56-3.52 1008.56-1.76 1025.38-1.76 1025.38 0 1006.8 0 1006.8-35.16 1025.38-35.16 1025.38-33.4 1008.56-33.4 1008.56-31.64 1025.38-31.64 1025.38-29.88 1008.56-29.88 1008.56-28.13 1025.38-28.13 1025.38-26.37 1008.56-26.37 1008.56-22 1024.41-22 1024.41-20.24 1008.56-20.24 1008.56-18.48 1024.41-18.48 1024.41-16.72 1008.56-16.72 1008.56-14.97 1024.41-14.97 1024.41-13.21 1008.56-13.21ZM1031.02-1.78L1029.26-1.78 1029.26-8.81 1031.02-8.81 1031.02-1.78ZM1029.26 3.49L1029.26 3.49 1029.26 1.73Q1030.29 1.73 1030.98 1.51 1031.68 1.29 1032.02 1.03 1032.36 0.76 1032.55 0.2 1032.73-0.37 1032.75-0.72 1032.78-1.07 1032.78-1.78L1032.78-1.78 1032.78-8.81 1034.54-8.81 1034.54-1.78Q1034.54-1.25 1034.52-0.93 1034.51-0.61 1034.41 0.01 1034.32 0.63 1034.12 1.04 1033.93 1.44 1033.55 1.95 1033.17 2.47 1032.62 2.77 1032.07 3.08 1031.22 3.28 1030.36 3.49 1029.26 3.49ZM1029.26 7.01L1029.26 7.01 1029.26 5.25Q1030.41 5.25 1031.35 5.11 1032.29 4.98 1032.97 4.79 1033.66 4.59 1034.19 4.2 1034.73 3.81 1035.07 3.48 1035.42 3.15 1035.66 2.58 1035.9 2 1036.03 1.61 1036.15 1.22 1036.21 0.51 1036.27-0.2 1036.28-0.6 1036.29-1 1036.29-1.78L1036.29-1.78 1036.29-8.81 1038.05-8.81 1038.05-1.78Q1038.05-1 1038.04-0.55 1038.03-0.1 1037.94 0.73 1037.86 1.56 1037.71 2.08 1037.56 2.59 1037.26 3.32 1036.95 4.05 1036.53 4.52 1036.1 4.98 1035.43 5.51 1034.76 6.03 1033.9 6.32 1033.05 6.62 1031.86 6.81 1030.68 7.01 1029.26 7.01ZM1072.62 0L1072.62-17.33Q1072.62-20.46 1070.69-22.17 1068.76-23.88 1065.59-23.88L1065.59-23.88Q1062.9-23.88 1060.97-22.02 1059.04-20.17 1059.04-17.58L1059.04-17.58Q1059.04-16.11 1059.43-14.95 1059.82-13.79 1060.5-13.02 1061.17-12.26 1062.1-11.76 1063.02-11.25 1064.04-11.04 1065.05-10.82 1066.2-10.82L1066.2-10.82Q1068.98-10.82 1071.27-12.18L1071.27-12.18 1071.27-10.42Q1068.91-9.18 1066.17-9.18L1066.17-9.18Q1064.41-9.18 1062.86-9.66 1061.31-10.13 1060.04-11.1 1058.77-12.06 1058.03-13.73 1057.29-15.41 1057.29-17.58L1057.29-17.58Q1057.29-20.95 1059.65-23.29 1062.02-25.63 1065.59-25.63L1065.59-25.63Q1069.52-25.63 1071.95-23.43 1074.38-21.22 1074.38-17.33L1074.38-17.33 1074.38 0 1072.62 0ZM1077.89-17.33L1077.89-17.33 1077.89 0 1076.13 0 1076.13-17.33Q1076.13-21.95 1073.18-24.67 1070.22-27.39 1065.59-27.39L1065.59-27.39Q1061.29-27.39 1058.41-24.54 1055.53-21.68 1055.53-17.58L1055.53-17.58Q1055.53-15.09 1056.39-13.11 1057.26-11.13 1058.75-9.94 1060.24-8.74 1062.08-8.12 1063.93-7.5 1065.98-7.5L1065.98-7.5Q1068.76-7.5 1071.27-8.79L1071.27-8.79 1071.27-6.93Q1068.64-5.83 1065.95-5.83L1065.95-5.83Q1063.54-5.83 1061.36-6.58 1059.19-7.32 1057.48-8.75 1055.77-10.18 1054.77-12.46 1053.77-14.75 1053.77-17.58L1053.77-17.58Q1053.77-22.39 1057.18-25.77 1060.58-29.15 1065.59-29.15L1065.59-29.15Q1069.1-29.15 1071.89-27.72 1074.67-26.29 1076.28-23.58 1077.89-20.87 1077.89-17.33ZM1081.41-17.33L1081.41-17.33 1081.41 0 1079.65 0 1079.65-17.33Q1079.65-21.36 1077.81-24.48 1075.96-27.59 1072.76-29.25 1069.57-30.91 1065.59-30.91L1065.59-30.91Q1061.8-30.91 1058.68-29.11 1055.55-27.32 1053.78-24.27 1052.01-21.22 1052.01-17.58L1052.01-17.58Q1052.01-14.45 1053.16-11.88 1054.31-9.3 1056.25-7.64 1058.19-5.98 1060.67-5.07 1063.14-4.15 1065.85-4.15L1065.85-4.15Q1068.61-4.15 1071.27-5.3L1071.27-5.3 1071.27-3.52Q1068.49-2.47 1065.81-2.47L1065.81-2.47Q1061.58-2.47 1058.04-4.37 1054.5-6.27 1052.38-9.77 1050.25-13.26 1050.25-17.58L1050.25-17.58Q1050.25-20.65 1051.44-23.44 1052.62-26.22 1054.65-28.25 1056.68-30.27 1059.53-31.47 1062.39-32.67 1065.59-32.67L1065.59-32.67Q1070.05-32.67 1073.66-30.76 1077.26-28.86 1079.33-25.34 1081.41-21.83 1081.41-17.33ZM1084.92-17.33L1084.92-17.33 1084.92 0 1083.16 0 1083.16-17.33Q1083.16-22.31 1080.85-26.23 1078.53-30.15 1074.52-32.29 1070.52-34.42 1065.59-34.42L1065.59-34.42Q1060.85-34.42 1056.92-32.15 1052.99-29.88 1050.74-26.01 1048.5-22.14 1048.5-17.58L1048.5-17.58Q1048.5-14.58 1049.46-11.88 1050.43-9.18 1052.1-7.17 1053.77-5.15 1055.95-3.69 1058.14-2.22 1060.67-1.46 1063.19-0.71 1065.81-0.71L1065.81-0.71Q1068.69-0.71 1071.27-1.81L1071.27-1.81 1071.27 0Q1068.56 0.95 1065.71 0.95L1065.71 0.95Q1062.75 0.95 1059.96 0.12 1057.16-0.71 1054.78-2.33 1052.4-3.96 1050.6-6.16 1048.79-8.37 1047.76-11.33 1046.74-14.28 1046.74-17.58L1046.74-17.58Q1046.74-21.36 1048.17-24.79 1049.6-28.22 1052.07-30.73 1054.55-33.23 1058.08-34.7 1061.61-36.18 1065.59-36.18L1065.59-36.18Q1069.64-36.18 1073.2-34.81 1076.77-33.45 1079.36-31.02 1081.94-28.59 1083.43-25.05 1084.92-21.51 1084.92-17.33ZM1117-35.16L1117-14.18 1115.24-17.38 1115.24-35.16 1117-35.16ZM1120.52-35.16L1120.52-8.11 1118.76-11.08 1118.76-35.16 1120.52-35.16ZM1096.3 0L1096.3-20.97 1098.05-17.77 1098.05 0 1096.3 0ZM1092.78 0L1092.78-27.29 1094.54-24.07 1094.54 0 1092.78 0ZM1113.75 0L1093.39-35.16 1095.44-35.16 1115.8 0 1113.75 0ZM1117.85 0L1097.54-35.16 1099.62-35.16 1119.95 0 1117.85 0ZM1121.96 0L1101.67-35.16 1103.72-35.16 1122.27-3.05 1122.27-35.16 1124.03-35.16 1124.03 0 1121.96 0ZM1109.63 0L1091.02-32.13 1091.02 0 1089.27 0 1089.27-35.16 1091.37-35.16 1111.65 0 1109.63 0ZM1148.91-10.55L1139.17-10.55 1139.17-24.61Q1139.17-24.61 1148.91-24.61L1148.91-24.61Q1151.62-24.61 1153.56-22.56 1155.5-20.51 1155.5-17.63L1155.5-17.63Q1155.5-14.65 1153.57-12.6 1151.64-10.55 1148.91-10.55L1148.91-10.55ZM1140.92-22.85L1140.92-12.3 1148.91-12.3Q1150.88-12.3 1152.29-13.84 1153.69-15.38 1153.69-17.63L1153.69-17.63Q1153.69-19.78 1152.29-21.31 1150.88-22.85 1148.91-22.85L1148.91-22.85 1140.92-22.85ZM1137.41-26.37L1137.41-8.79 1148.91-8.79Q1152.37-8.79 1154.84-11.36 1157.3-13.94 1157.3-17.63L1157.3-17.63Q1157.3-21.24 1154.83-23.8 1152.35-26.37 1148.91-26.37L1148.91-26.37 1137.41-26.37ZM1148.91-7.03L1135.65-7.03 1135.65-28.13 1148.91-28.13Q1153.08-28.13 1156.1-25.04 1159.11-21.95 1159.11-17.63L1159.11-17.63Q1159.11-13.21 1156.11-10.12 1153.11-7.03 1148.91-7.03L1148.91-7.03ZM1133.89-29.88L1133.89-5.27 1148.91-5.27Q1152.13-5.27 1154.89-6.91 1157.65-8.54 1159.28-11.4 1160.92-14.26 1160.92-17.63L1160.92-17.63Q1160.92-20.92 1159.28-23.75 1157.65-26.59 1154.88-28.23 1152.1-29.88 1148.91-29.88L1148.91-29.88 1133.89-29.88ZM1148.91-3.52L1132.13-3.52 1132.13-31.64 1148.91-31.64Q1152.59-31.64 1155.78-29.76 1158.97-27.88 1160.84-24.65 1162.72-21.41 1162.72-17.63L1162.72-17.63Q1162.72-13.79 1160.84-10.53 1158.97-7.28 1155.78-5.4 1152.59-3.52 1148.91-3.52L1148.91-3.52ZM1130.38-33.4L1130.38-1.76 1148.91-1.76Q1153.08-1.76 1156.67-3.87 1160.26-5.98 1162.4-9.64 1164.53-13.31 1164.53-17.63L1164.53-17.63Q1164.53-21.88 1162.4-25.52 1160.26-29.17 1156.66-31.29 1153.06-33.4 1148.91-33.4L1148.91-33.4 1130.38-33.4ZM1148.91 0L1148.91 0 1128.62 0 1128.62-35.16 1148.91-35.16Q1153.55-35.16 1157.56-32.8 1161.58-30.44 1163.96-26.4 1166.34-22.36 1166.34-17.63L1166.34-17.63Q1166.34-14.04 1164.93-10.77 1163.53-7.5 1161.17-5.14 1158.82-2.78 1155.6-1.39 1152.37 0 1148.91 0ZM1184.47-35.16L1184.47 0 1182.71 0 1182.71-35.16 1184.47-35.16ZM1180.96-35.16L1180.96 0 1179.2 0 1179.2-35.16 1180.96-35.16ZM1177.44-35.16L1177.44 0 1175.68 0 1175.68-35.16 1177.44-35.16ZM1187.99-13.21L1187.99-8.79 1204.81-8.79 1204.81-7.03 1187.99-7.03 1187.99-5.27 1204.81-5.27 1204.81-3.52 1187.99-3.52 1187.99-1.76 1204.81-1.76 1204.81 0 1186.23 0 1186.23-35.16 1204.81-35.16 1204.81-33.4 1187.99-33.4 1187.99-31.64 1204.81-31.64 1204.81-29.88 1187.99-29.88 1187.99-28.13 1204.81-28.13 1204.81-26.37 1187.99-26.37 1187.99-22 1203.83-22 1203.83-20.24 1187.99-20.24 1187.99-18.48 1203.83-18.48 1203.83-16.72 1187.99-16.72 1187.99-14.97 1203.83-14.97 1203.83-13.21 1187.99-13.21Z" opacity="1" transform="matrix(1,0,0,1,0,0)" fill="#ffffff" class="slogan-text-1" data-fill-palette-color="secondary" id="text-1"></path></svg></g></svg></g></svg></g></svg></g><g transform="matrix(1,0,0,1,406.11252169526676,0)"><svg viewBox="0 0 47.970476873294274 89.29782196684226" height="89.29782196684226" width="47.970476873294274"><g><svg xmlns="http://www.w3.org/2000/svg" data-name="Layer 1" viewBox="24.299457550048828 2.3000001907348633 51.30226516723633 95.5" x="0" y="0" height="89.29782196684226" width="47.970476873294274" class="icon-icon-0" data-fill-palette-color="accent" id="icon-0"><g data-name="Group" fill="#ffffff" data-fill-palette-color="accent"><path data-name="Compound Path" d="M72.6 58.8H69.7a23.1 23.1 0 0 0-16.5 7.8V47.3A16 16 0 0 0 67.7 31.4v-10a5 5 0 0 0-5-5H61.2V5.3a3 3 0 0 0-6 0V16.4h-10V5.3a3 3 0 0 0-6 0V16.4H37.8a5 5 0 0 0-5 5v10A16 16 0 0 0 47.2 47.3v5.1a23.2 23.2 0 0 0-16.9-8.3H27.4a3 3 0 0 0-2.2 0.9 3 3 0 0 0-0.9 2.2V50A23.4 23.4 0 0 0 46.9 72.4h0.4V94.8a3 3 0 0 0 6 0V87.1A23.4 23.4 0 0 0 75.6 64.7V61.9a3 3 0 0 0-3.1-3.1ZM30.5 50.2A17.4 17.4 0 0 1 46.7 66.4 17.4 17.4 0 0 1 30.5 50.2Zm8.3-18.8v-9h23v9a10 10 0 0 1-10 10h-3A10 10 0 0 1 38.8 31.4ZM53.3 81.1A17.3 17.3 0 0 1 69.5 64.9 17.3 17.3 0 0 1 53.3 81.1Z" fill="#ffffff" data-fill-palette-color="accent"></path></g></svg></g></svg></g></svg></g><defs></defs></svg><rect width="395.52" height="77.78109873231182" fill="none" stroke="none" visibility="hidden"></rect></g></svg></g></svg>